<svg width="1440" height="1256" viewBox="0 0 1440 1256" fill="none" xmlns="http://www.w3.org/2000/svg">
<path d="M-619.126 1157.95C-623.071 1134.68 -609.65 792.905 -485.31 509.925C-373.696 256.267 -114.144 111.698 189.633 294.011C515.119 489.405 795.873 509.053 1022.25 452.056C1245.67 395.546 1394.25 225.275 1460.97 116.7C1605.79 -117.932 1819.72 27.1997 1744.58 335.908C1709.12 479.511 1615.65 519.66 1453.68 534.561C1284.38 550.136 1034.25 517.075 687.308 584.45C352.717 649.682 -23.8087 806.346 -235.534 1005.76C-460.861 1218.16 -586.092 1361 -619.126 1157.95Z" fill="url(#paint0_linear_1156_1029)"/>
<defs>
<linearGradient id="paint0_linear_1156_1029" x1="1636.47" y1="973.321" x2="-567.86" y2="290.041" gradientUnits="userSpaceOnUse">
<stop stop-color="#5D50C6"/>
<stop offset="1" stop-color="#F85E9F"/>
</linearGradient>
</defs>
</svg>
