<svg width="19" height="16" viewBox="0 0 19 16" fill="none" xmlns="http://www.w3.org/2000/svg">
<path d="M18.8006 2.49851C18.115 2.80255 17.3774 3.00819 16.6039 3.10003C17.3937 2.62686 17.9998 1.87817 18.2858 0.984589C17.5468 1.42296 16.728 1.74098 15.8572 1.91239C15.1596 1.16941 14.1656 0.705078 13.065 0.705078C10.9532 0.705078 9.24051 2.4178 9.24051 4.52953C9.24051 4.82929 9.27445 5.12106 9.34005 5.40115C6.16161 5.24171 3.3434 3.71923 1.45699 1.40471C1.12785 1.96944 0.939039 2.62686 0.939039 3.32763C0.939039 4.65417 1.61471 5.82526 2.64035 6.51092C2.01373 6.49124 1.42362 6.31925 0.908236 6.03204C0.90795 6.0483 0.90795 6.06456 0.90795 6.08053C0.90795 7.93357 2.22679 9.47915 3.97601 9.83025C3.65543 9.9181 3.31688 9.96459 2.96863 9.96459C2.72163 9.96459 2.48234 9.94092 2.24903 9.89642C2.73561 11.4155 4.14771 12.5213 5.82164 12.5523C4.5125 13.5783 2.86367 14.1895 1.07138 14.1895C0.763346 14.1895 0.458166 14.1715 0.159546 14.1359C1.85116 15.2214 3.86192 15.8543 6.02157 15.8543C13.0561 15.8543 16.9031 10.0268 16.9031 4.97247C16.9031 4.80676 16.8994 4.64162 16.892 4.4779C17.6398 3.93885 18.2881 3.26546 18.8006 2.49851Z" fill="#F1F2F2"/>
</svg>
