<svg width="16" height="16" viewBox="0 0 16 16" fill="none" xmlns="http://www.w3.org/2000/svg">
<path d="M12.8 0.199219H3.19996C1.53328 0.199219 0.199951 1.53255 0.199951 3.19923V12.7992C0.199951 14.4659 1.53328 15.7992 3.19996 15.7992H12.8C14.4666 15.7992 15.8 14.4659 15.8 12.7992V3.19922C15.8 1.53255 14.4666 0.199219 12.8 0.199219ZM13.6666 1.99922H14V4.66588H11.3333V1.99922H13.6666ZM5.79997 6.39923C6.26663 5.73255 7.1333 5.26588 7.99997 5.26588C8.86664 5.26588 9.73331 5.73255 10.2 6.39923C10.5333 6.86589 10.7333 7.39922 10.7333 7.99922C10.7333 9.53255 9.46663 10.7326 7.99997 10.7326C6.5333 10.7326 5.26664 9.53256 5.26664 7.99922C5.26663 7.39922 5.46663 6.86589 5.79997 6.39923ZM14.2666 12.7992C14.2666 13.5992 13.6 14.2659 12.8 14.2659H3.19996C2.39996 14.2659 1.73329 13.5992 1.73329 12.7992V6.39923H4.06662C3.86661 6.86589 3.73329 7.46589 3.73329 7.99922C3.73329 10.3326 5.66663 12.2659 7.99996 12.2659C10.3333 12.2659 12.2666 10.3326 12.2666 7.99922C12.2666 7.46589 12.1333 6.86588 11.9333 6.39923H14.2666L14.2666 12.7992Z" fill="white"/>
</svg>
